<svg width="512" height="512" viewBox="0 0 512 512" fill="none" xmlns="http://www.w3.org/2000/svg">
<path d="M0 0H512V512H0V0Z" fill="url(#paint0_linear_25_48)"/>
<path d="M337.63 399.372C313.219 399.44 293.375 379.706 293.308 355.295L292.987 239.896C292.951 226.829 290.122 216.437 284.5 208.719C278.613 201.269 269.269 197.561 256.469 197.597C243.669 197.632 234.213 201.392 228.101 208.876C221.989 216.626 218.951 227.035 218.987 240.101L219.308 355.501C219.376 379.912 199.642 399.755 175.231 399.823V399.823C150.82 399.891 130.976 380.157 130.908 355.746L130.588 240.347C130.513 213.413 136.049 190.331 147.195 171.1C158.343 152.136 173.636 137.827 193.076 128.173C212.516 118.519 234.236 113.658 258.236 113.592C282.236 113.525 303.583 118.266 322.276 127.814C340.702 137.363 355.142 151.589 365.595 170.494C376.047 189.398 381.311 212.45 381.387 239.65L381.707 355.05C381.775 379.46 362.041 399.304 337.63 399.372V399.372Z" fill="url(#paint1_linear_25_48)"/>
<defs>
<linearGradient id="paint0_linear_25_48" x1="256" y1="0" x2="256" y2="512" gradientUnits="userSpaceOnUse">
<stop/>
<stop offset="1" stop-color="#001807"/>
</linearGradient>
<linearGradient id="paint1_linear_25_48" x1="256.666" y1="556.398" x2="254.999" y2="-43.6001" gradientUnits="userSpaceOnUse">
<stop offset="0.220572" stop-color="#00FFB3"/>
<stop offset="1" stop-color="#FFC700"/>
</linearGradient>
</defs>
</svg>
